<svg xmlns="http://www.w3.org/2000/svg" viewBox="0 0 129.1 128.9"><style>.st0{fill:#2e9cd4}</style><path class="st0" d="M112.1 20.8l-4-4C97.6 7.2 83.9 1 68.8 0h-8.4C26.7 2.2 0 30.1 0 64.4 0 100.1 28.9 129 64.6 129s64.6-28.9 64.6-64.6c-.1-16.9-6.5-32.1-17.1-43.6zM64.6 123.3c-32.5 0-59-26.4-59-59s26.5-59 59-59 59 26.4 59 59-26.5 59-59 59zm1-36.8c-11.8 0-21.3-9.6-21.3-21.3 0-11.5 9.2-20.8 20.6-21.2v10l22.9-13.2-22.9-13.3v10.4c-14.8.4-26.7 12.5-26.7 27.3 0 15.1 12.3 27.4 27.4 27.4C80.7 92.6 93 80.3 93 65.2h-6.1c0 11.8-9.5 21.3-21.3 21.3z"/></svg>