<svg xmlns="http://www.w3.org/2000/svg" viewBox="0 0 36 36"><style>.st0{opacity:.4;fill:#2e9cd4}.st1{fill:#2e9cd4;stroke:#2e9cd4;stroke-width:.5;stroke-linecap:round;stroke-linejoin:round;stroke-miterlimit:10}</style><path class="st0" d="M34.7 30.1c0 .3.6.2.6-.1V5.8c0-2.4-1.7-4.4-4-5-.7-.2-1.6-.1-2.4-.1H8.3C5.7.7 3.2.6 1.4 3 .2 5 .7 8 .7 10.2v19.7c0 3.2 2.3 5.4 5.5 5.4h23.9c2.9-.1 5.2-2.2 5.3-5.1"/><path class="st1" d="M34.7 30.1c-.1 2.6-2 4.7-4.7 4.7H6.9c-1.4 0-2.8-.2-3.9-1.2-1.3-1.1-1.6-2.6-1.6-4.2V9.3c0-3-.5-6.3 2.8-7.9.9-.4 2.1-.3 3.1-.3H30c2.6 0 4.7 2.2 4.7 4.8v24.2c0 .3.6.2.6-.1V5.8c0-2.4-1.7-4.4-4-5-.7-.2-1.6-.1-2.4-.1H8.3C5.7.7 3.2.6 1.4 3 .2 5 .7 8 .7 10.2v19.7c0 3.2 2.3 5.4 5.5 5.4h23.9c2.9-.1 5.2-2.2 5.3-5.1 0-.4-.6-.3-.7-.1zM23.3 19.8c.2-1.4.4-2.8.5-4.2 0-.1-.1-.1-.2-.1h-4.1c-.3 0 0 .2 0 0v-.7c0-1-.2-2.3.3-3.2.4-.9 2.8-.6 3.6-.6.1 0 .4-.1.4-.2V7c0-.1 0-.1-.1-.1-2.8-.3-6-.5-8 1.8-1.6 1.8-1.2 4.6-1.2 6.9l.4-.2h-3.6c-.1 0-.4.1-.4.2v4.2c0 .1.1.1.2.1h3.6-.2v10.7c0 .1.1.1.2.1H19c.1 0 .4-.1.4-.2V19.7l-.4.2h3.6c.2 0 .7-.4.2-.4h-3.6c-.1 0-.4.1-.4.2v10.8l.4-.2h-4.1c-.4 0-.1 0-.1.1V19.6c0-.1-.1-.1-.2-.1h-3.6c-.2 0 .1.2.1.1v-4.1l-.4.2h3.6c.1 0 .4-.1.4-.2 0-2.9-.4-6.5 2.6-8 1.1-.6 2.4-.5 3.7-.4l1.6.1c.2 0 .1 0 .1.3v3.3l.4-.2c-1.3 0-3.3-.3-4.3.7-.9.9-.4 3.2-.4 4.3 0 .1.1.1.2.1h3.9c.4 0 .1 0 .1-.1-.2 1.4-.4 2.8-.5 4.2.3.3.9.2 1 0z"/></svg>