<svg xmlns="http://www.w3.org/2000/svg" viewBox="0 0 129.1 140.4"><style>.st0{fill:#2e9cd4}</style><path class="st0" d="M112.1 32.2l4.8-4.8 4.8 4.8 6-6-13.6-13.6-6 6 4.8 4.8-4.8 4.8c-10.5-9.6-24.2-15.8-39.4-16.8V0h-8.4v11.4C26.7 13.6 0 41.6 0 75.8c0 35.7 28.9 64.6 64.6 64.6s64.6-28.9 64.6-64.6c-.1-16.8-6.5-32.1-17.1-43.6zM64.6 134.8c-32.5 0-59-26.4-59-59s26.5-59 59-59 59 26.4 59 59-26.5 59-59 59zm2.8-66.9v-37h-5.6v37c-3.3 1.2-5.6 4.2-5.6 7.9s2.4 6.8 5.6 7.9v11.7h5.6V83.7c3.3-1.2 5.6-4.2 5.6-7.9s-2.4-6.7-5.6-7.9zm38 2.8C103.3 53.2 90.2 39 72.9 35.5l1.2-5.9c19.8 4.1 34.8 20.3 37.3 40.4l-6 .7zm-5.8-9.3l8.7 7.5 7.5-8.7.5 6.9-7.5 8.7-8.7-7.5zm-9.6.5c-3.5-6.5-9.3-11.3-16.3-13.6l1.9-5.7C84 45.4 91 51.3 95.3 59L90 61.9z"/></svg>