<svg xmlns="http://www.w3.org/2000/svg" viewBox="0 0 72.3 72.3"><style>.st0{fill:#FFF}</style><path class="st0" d="M0-.2v72.3h31.6c1 .2 1.9.4 3 .4H38c1.6 0 3.2-.3 4.6-.9 1.4-.6 2.7-1.5 3.8-2.5 1.1-1.1 1.9-2.3 2.5-3.8.6-1.4.9-3 .9-4.6v-1.9l-4.3-.8v2.6c0 1.1-.2 2.1-.6 3-.4.9-1 1.8-1.7 2.5s-1.5 1.3-2.4 1.7c-.9.4-1.9.6-3 .6h-3c-1.1 0-2.1-.2-3-.6s-1.8-1-2.5-1.7-1.3-1.5-1.7-2.5c-.4-.9-.6-1.9-.6-3v-26c0-1.1.2-2.1.6-3 .4-.9 1-1.8 1.7-2.4.7-.7 1.5-1.2 2.5-1.7s1.9-.6 3-.6h3c1.1 0 2.1.2 3 .6.9.4 1.8 1 2.4 1.7.7.7 1.2 1.5 1.7 2.4.4.9.6 1.9.6 3v2.6l4.4-.7v-2c0-1.6-.3-3.2-.9-4.6-.6-1.4-1.5-2.7-2.5-3.8-1.1-1.1-2.3-1.9-3.8-2.5-1.4-.6-3-.9-4.6-.9h-3.4c-1.6 0-3.2.3-4.6.9s-2.7 1.5-3.8 2.5c-1.1 1.1-1.9 2.3-2.5 3.8-.6 1.4-.9 3-.9 4.6v26c0 1.6.3 3.2.9 4.6.5 1.1 1.1 2.2 1.9 3.1H3.8V3.6h64.7v64.7H55.7l-2 3.8h18.7V-.2H0z"/></svg>