<svg xmlns="http://www.w3.org/2000/svg" viewBox="0 0 36 36"><style>.st0{opacity:.4;fill:#2e9cd4}.st1{fill:#2e9cd4;stroke:#2e9cd4;stroke-width:.5;stroke-linecap:round;stroke-linejoin:round;stroke-miterlimit:10}</style><path class="st0" d="M34.8 30.1c0 .3.6.2.6-.1V5.8c0-2.4-1.7-4.4-4-5-.7-.2-1.6-.1-2.4-.1H8.4C5.8.7 3.3.6 1.5 3 .3 5 .8 8 .8 10.2v19.7c0 3.2 2.3 5.4 5.5 5.4h23.9c2.9-.1 5.2-2.2 5.3-5.1"/><path class="st1" d="M34.7 30.2c-.1 2.6-2 4.7-4.7 4.7H6.8c-1.5 0-2.9-.3-4.1-1.4-1.1-1.1-1.4-2.5-1.4-4V9.4c0-3.1-.4-6.9 3.3-8 .8-.3 1.8-.2 2.7-.2H30c2.6 0 4.7 2.3 4.7 4.9v24.1c0 .2.6.1.6-.2V5.8c0-2.5-1.9-4.5-4.4-4.9-.7-.1-1.5 0-2.1 0H8.2C5.5.9 2.9.9 1.3 3.5.2 5.3.6 8.3.6 10.3V30c0 3.2 2.4 5.3 5.5 5.3h21.6c.9 0 1.8.1 2.6 0 2.8-.3 4.8-2.3 4.9-5.1.1-.3-.5-.2-.5 0zM10.5 8.9h13.4c1.6 0 3.2.5 3.2 2.4V25c0 1.5-.7 2.8-2.5 2.8h-9c-2.1 0-7.2.9-7.2-2.4V12.6c.1-1.5-.1-3.5 2.1-3.7.2 0 .7-.4.3-.3-1.6.1-2.9 1.2-2.9 2.9v13.9c0 1.7 1 2.9 2.7 3 .9.1 1.9 0 2.8 0h10.7c1.2 0 2.2 0 3.1-.9.9-.8.8-2 .8-3.1V13.6c0-1 .1-2.1-.1-3-.3-1.5-1.9-1.9-3.2-1.9H10.9c-.3-.1-.8.2-.4.2zm11.8 1.8c-1.6.2-1.2 2-1.2 3.2 0 1.4 2.4 1 3.2 1 1.7 0 1.3-2 1.3-3.1 0-1.5-2.3-1.1-3.3-1.1-.1 0-.6.3-.2.3.7 0 2.1-.3 2.7.3.3.3.2 1 .2 1.4v1.4c-.1.7-1.2.5-1.6.5-.5 0-1.1.1-1.5-.3-.3-.3-.2-1-.2-1.4 0-.4-.2-1.7.5-1.8.3-.1.5-.4.1-.4zm3.1 6.1h-1.7c-.1 0-.5.1-.4.2 1 3.8-1.9 7.5-5.9 7.2-3.6-.3-5.9-4-5-7.3 0-.1-.1-.1-.2-.1h-1.8c-.1 0-.4.1-.4.2v8.2c0 1.1 1.5.9 2.2.9h10.6c.8 0 1.9.2 2.5-.3.7-.6.3-2.7.3-3.5v-5.4c0-.2-.6-.1-.6.2v8c0 1.1-1.4.7-2.1.7H12.8c-.7 0-2.2.3-2.2-.8v-8c-.1.1-.3.2-.4.2h1.5c.5 0 .1-.1 0 .3-.3 1.2-.1 2.4.3 3.5.8 2 2.7 3.2 4.7 3.6 4.4.9 8.5-3.3 7.3-7.6-.1.1-.3.2-.4.2h1.7c.1-.1.6-.4.1-.4zM18 14.5c-2.2.1-4 1.4-4.3 3.6-.3 2.4 1.9 4.1 4.1 4.2 2.1.1 4-1.6 4.3-3.6.3-2.4-1.9-4.2-4.1-4.2-.2 0-.7.3-.3.3 1.8.1 3.2 1.3 3.6 3 .5 2.1-1.3 4.1-3.4 4.2-4.5.2-5-7-.3-7.2.3 0 .8-.4.4-.3z"/></svg>