<svg xmlns="http://www.w3.org/2000/svg" viewBox="0 0 36 36"><style>.st0{opacity:.4;fill:#2e9cd4}.st1{fill:#2e9cd4;stroke:#2e9cd4;stroke-width:.5;stroke-linecap:round;stroke-linejoin:round;stroke-miterlimit:10}</style><path class="st0" d="M34.7 30.1c0 .3.6.2.6-.1V5.8c0-2.4-1.7-4.4-4-5-.7-.2-1.6-.1-2.4-.1H8.3C5.7.7 3.2.6 1.4 3 .2 5 .7 8 .7 10.2v19.7c0 3.2 2.3 5.4 5.5 5.4h23.9c2.9-.1 5.2-2.2 5.3-5.1"/><path class="st1" d="M34.8 30.1c-.1 2.6-2 4.7-4.7 4.7H7c-1.4 0-2.8-.2-3.9-1.2-1.3-1.1-1.6-2.6-1.6-4.2V9.3c0-2.9-.5-6.4 2.8-7.9.9-.4 2.1-.3 3.1-.3h22.7c2.6 0 4.7 2.2 4.7 4.8v24.2c0 .3.6.1.6-.1V5.8c0-2.4-1.7-4.4-4-4.9-.7-.2-1.6-.1-2.4-.1H8.4C5.8.8 3.3.7 1.5 3.1.2 5 .7 8 .7 10.2v19.7c0 3.2 2.3 5.4 5.5 5.4h24.2c2.8-.1 4.9-2.4 5-5.1 0-.4-.6-.3-.6-.1zm-5.6-18.5c-.8.3-1.6.5-2.4.7l.2.3c1-.6 1.7-1.5 2.1-2.6.1-.3-.4-.2-.5-.1-.5.3-2.1 1.3-2.6.8-.4-.4-.8-.7-1.3-.8-1.2-.5-2.4-.5-3.7-.1-2.3.8-3.5 3.2-3 5.5l.4-.3c-3.6-.2-6.8-1.9-9.1-4.6-.1-.2-.5-.1-.6.1-1.2 2.2-.6 4.7 1.4 6.2.1-.1.2-.3.4-.4-.7-.1-1.3-.2-1.9-.5-.1-.1-.6 0-.6.2 0 2.3 1.6 4.1 3.7 4.6l.1-.4c-.6.1-1.2.2-1.9.1-.1 0-.5.1-.4.3.7 1.9 2.4 3.1 4.4 3.2l-.1-.3c-1.9 1.4-4 2-6.3 1.8-.2 0-.6.2-.4.4 4.7 2.9 11.2 2.8 15.5-.9 1.8-1.5 3.2-3.5 4-5.8.4-1.1.6-2.3.7-3.5.1-.8-.1-1.2.6-1.8.6-.6 1.2-1.2 1.6-1.9.2-.3-.5-.2-.6 0-.5.8-1.1 1.4-1.8 2-.4.3-.4.2-.4.7 0 1-.1 2-.3 3-.5 2.2-1.6 4.2-3 5.9-4 4.5-10.8 5-15.8 1.9-.1.1-.2.3-.4.4 2.5.2 4.9-.4 7-1.9.2-.1.1-.3-.1-.3-1.9-.1-3.4-1.2-4-3l-.4.3c.8.1 1.4.1 2.2-.1.2 0 .4-.3.1-.4-2-.5-3.5-2.2-3.5-4.3l-.6.2c.7.3 1.4.5 2.2.6.2 0 .6-.2.4-.4-1.9-1.4-2.4-3.7-1.3-5.8l-.6.1c2.4 2.8 5.7 4.5 9.4 4.8.2 0 .5-.1.4-.3-.6-3 1.9-5.8 5-5.1.8.2 1.5.7 2.1 1.2.1.1.2.1.3.1 1.1-.2 2.1-.6 3-1.2l-.5-.1c-.4 1-1 1.8-1.9 2.4-.2.1-.1.4.2.3 1-.1 1.9-.4 2.7-.8.6-.2.2-.5-.1-.4z"/></svg>