<svg id="Layer_1" xmlns="http://www.w3.org/2000/svg" viewBox="-377 260.58 85.8 75.7"><style>.st0{fill:#FFF}</style><path class="st0" d="M-301.4 302.617l.1-.137h-.1z"/><path class="st0" d="M-304.3 329.48c0 2.1-1.7 3.8-3.8 3.8h-62.2c-2 0-3.7-1.7-3.7-3.8v-62.2c0-2 1.7-3.7 3.7-3.7h62.2c2.1 0 3.8 1.7 3.8 3.8v6.2l3-2v-6c0-2.8-2.3-5-5-5H-372c-2.7 0-5 2.3-5 5v65.6c0 2.8 2.3 5 5 5h65.6c2.8 0 5-2.3 5-5v-28.563l-2.9 3.963v22.9z"/><path class="st0" d="M-291.5 272.08c-.5-.5-1.2-.6-1.8-.3l-45.19 30.858-15.71-11.958c-.5-.4-1.3-.4-1.8 0-.7.5-.8 1.4-.3 2.1l13.484 17.49c.012.017.023.043.035.06.29.387.76.973 1.448 1.45.528.395 1.14.685 1.832.8a4.458 4.458 0 0 0 3.25-.775c.61-.39.963-.775 1.012-.83l43.638-36.795c.6-.5.7-1.5.1-2.1z"/></svg>