<svg xmlns="http://www.w3.org/2000/svg" viewBox="0 0 138.1 134.5"><style>.st0{fill:#2e9cd4}</style><path class="st0" d="M44.8 134.5c-6.6 0-10.7-2.8-13-5.2-1.8-1.9-2.9-4.4-2.9-7.1V62c0-2.6 1-5 2.7-6.9 2.8-3 5.2-6.4 6.9-9 4.7-6.9 8.8-14.1 12.4-21.5.1-1.5.1-6.2 0-14.3 0-2.7 1-5.3 3-7.2 1.9-1.9 4.5-3 7.2-3h9.5c3.8 0 7.2 2.1 9 5.4 2.3 4.3 3.9 8 5.3 14.1 1 4.4.8 8.8.5 12.1-.3 3.6-1.6 9.5-2.5 13.5l44.8.1c5.6 0 10.2 4.6 10.2 10.2l.1 35.6c0 3-.8 5.9-2.3 8.4l-17.4 29.8c-1.8 3.1-5.2 5.1-8.8 5.1h-.1c-17.2-.1-40.5 0-57.5.1h-7.1zM61.3 6.6c-1 0-1.9.4-2.5 1.1-.7.7-1.1 1.6-1 2.6.1 15.6 0 15.8-.4 16.6-3.8 7.9-8.2 15.6-13.2 22.9-1.9 2.8-4.4 6.4-7.6 9.8-.6.7-1 1.5-1 2.4v60.3c0 .9.4 1.8 1 2.5 2 2.1 4.8 3.2 8.2 3.2h7.1c17-.1 40.4-.2 57.6-.1 1.3 0 2.5-.7 3.1-1.8L130 96.2c.9-1.5 1.4-3.3 1.4-5.2l.1-35.7c0-2-1.6-3.6-3.6-3.6l-53.2-.1 1-4.1c0-.1 2.8-11.5 3.3-16.6.3-3 .5-6.6-.4-10-1.2-5.4-2.6-8.5-4.6-12.4-.6-1.2-1.9-1.9-3.2-1.9h-9.5zM17 134.5h-6.2c-5.6 0-10.2-4.6-10.2-10.2V65.2C.6 59.5 5.2 55 10.8 55H17c2.7 0 5.3 1.1 7.2 3 1.9 1.9 3 4.5 3 7.2v59.1c0 5.6-4.6 10.2-10.2 10.2zm-6.2-72.9c-2 0-3.6 1.6-3.6 3.6v59.1c0 2 1.6 3.6 3.6 3.6H17c2 0 3.6-1.6 3.6-3.6V65.2c0-1-.4-1.9-1-2.5-.7-.7-1.6-1.1-2.5-1.1h-6.3z"/></svg>