<svg xmlns="http://www.w3.org/2000/svg" viewBox="0 0 220 31"><style>.st0{fill:#13cb35}.st1{fill:#2d9cd3}</style><path class="st0" d="M26.2 1.6H11.6C5.2 1.6 0 6.8 0 13.2v.7c0 6.4 5.2 11.6 11.6 11.6h5.6l2.1 4.2h9.3l-2.1-4.2c6.3-.2 11.3-5.3 11.3-11.6v-.7c0-6.4-5.2-11.6-11.6-11.6zM24.5 18c0 2.2-1.8 3.9-3.9 3.9h-3.3c-2.2 0-3.9-1.8-3.9-3.9V9.2c0-2.2 1.8-3.9 3.9-3.9h3.3c2.2 0 3.9 1.8 3.9 3.9V18z"/><path class="st1" d="M157.9 19c0 4.1-3 6.1-8.9 6.1h-12.8v4c0 .8-.3 1.3-.8 1.5-.2.1-.8.1-1.8.1s-1.5-.5-1.5-1.6V11.4c0-2.4 1.1-4.1 3.2-5 1.2-.6 3.3-.9 6.1-.9h6.5c6.6 0 9.9 1.9 9.9 5.8V19zm-4.1.1v-7.7c0-1-.8-1.7-2.3-2-.6-.1-1.7-.2-3.4-.2h-6.4c-3.6 0-5.4.8-5.4 2.3v10h12.8c3.1 0 4.7-.8 4.7-2.4zm11.1 4.6c0 1.1-.5 1.6-1.5 1.6s-1.6 0-1.8-.1c-.6-.2-.8-.7-.8-1.5V1.8c0-1.1.5-1.6 1.5-1.6.9 0 1.5 0 1.8.1.5.2.8.7.8 1.5v21.9zm29.1-4.3c0 4-4 6-11.9 6H178c-6.7 0-10-2-10-5.9V7.2c0-1.1.5-1.6 1.5-1.6s1.6 0 1.8.1c.5.2.8.7.8 1.5v12.3c0 1.5 2 2.3 5.9 2.3h6.1c3.9 0 5.8-.7 5.8-2.2V7.2c0-.8.3-1.3.8-1.5.2-.1.8-.1 1.8-.1s1.5.5 1.5 1.6v12.2zm26 .3c0 3.8-2.7 5.7-8.1 5.7H198c-1 0-1.5-.5-1.5-1.6 0-1.4.5-2 1.5-2h13.9c2.6 0 3.9-.7 3.9-2v-.7c0-1.2-1.2-1.8-3.5-1.8h-6.7c-6.1 0-9.2-1.8-9.2-5.5v-1.1c0-2.4 1.5-4 4.6-4.6.6-.2 1.5-.3 2.7-.3 1.2-.1 2.7-.1 4.5-.1 1 0 1.5.7 1.5 2.1 0 1.1-.5 1.6-1.5 1.6h-3c-1.5 0-2.5 0-2.8.1-1.4.2-2 .6-2 1.3v1c0 1.2 1.7 1.8 5.1 1.8h6.8c5.1 0 7.6 1.8 7.6 5.4v.7z"/><path class="st0" d="M67.3 25.6h15.9l-21.4-24h-4.3L35.4 25.7h23.9v-3.9h-16l10.3-11.3zm56.6-24l-17.6 16-16.8-16h-4.7v24h4.7v-9.7l10.9 9.7h5.4l9.9-9.5v9.5h13v-24z"/><path class="st1" d="M17.9 9.3h1.6v8.6h-1.6zm-3.5 3.5H23v1.6h-8.6z"/></svg>