<svg id="Layer_1" xmlns="http://www.w3.org/2000/svg" viewBox="0 0 63.5 48"><style>.st0{fill:#47b649}</style><path class="st0" d="M38.5 42.5c0 1-.8 1.9-1.9 1.9H5.5c-1 0-1.9-.8-1.9-1.9V11.3c0-1 .8-1.9 1.9-1.9h31.1c1 0 1.9.8 1.9 1.9v3.1l3.6-2.5V8.6c0-1.6-1.3-2.8-2.8-2.8H2.8C1.3 5.8 0 7.1 0 8.6v36.5C0 46.7 1.3 48 2.8 48h36.5c1.6 0 2.8-1.3 2.8-2.8V27.6L38.5 31v11.5z"/><path class="st0" d="M63.2.4c-.4-.5-1.1-.6-1.6-.3l-40 27.3L7.7 16.9c-.5-.4-1.1-.4-1.6 0-.6.4-.7 1.3-.2 1.9l12.3 15.8.1.1c.4.5.8.9 1.4 1.1h.1c.2.1.4.2.6.2.1 0 .2 0 .2.1h1.2c.2 0 .4-.1.6-.1h.1c.6-.2 1.1-.5 1.5-.9 0 0 .1 0 .1-.1l39-32.7c.5-.5.6-1.3.1-1.9z"/></svg>