<svg xmlns="http://www.w3.org/2000/svg" viewBox="0 0 129.1 140.4" enable-background="new 0 0 129.1 140.4"><style type="text/css">.st0{fill:#2E9CD4;}</style><path class="st0" d="M112.1 32.2l4.8-4.8 4.8 4.8 6-6-13.6-13.6-6 6 4.8 4.8-4.8 4.8c-10.5-9.6-24.2-15.8-39.4-16.8v-11.4h-8.4v11.4c-33.6 2.2-60.3 30.2-60.3 64.4 0 35.7 28.9 64.6 64.6 64.6s64.6-28.9 64.6-64.6c-.1-16.8-6.5-32.1-17.1-43.6zm-47.5 102.6c-32.5 0-59-26.4-59-59s26.5-59 59-59 59 26.4 59 59-26.5 59-59 59zM67.4 67.9v-37h-5.6v37c-3.3 1.2-5.6 4.2-5.6 7.9s2.4 6.8 5.6 7.9v11.7h5.6v-11.7c3.3-1.2 5.6-4.2 5.6-7.9s-2.4-6.7-5.6-7.9zM105.4 70.7c-2.1-17.5-15.2-31.7-32.5-35.2l1.2-5.9c19.8 4.1 34.8 20.3 37.3 40.4l-6 .7zM99.6 61.4l8.7 7.5 7.5-8.7.5 6.9-7.5 8.7-8.7-7.5zM90 61.9c-3.5-6.5-9.3-11.3-16.3-13.6l1.9-5.7c8.4 2.8 15.4 8.7 19.7 16.4l-5.3 2.9z"/></svg>