<?xml version="1.0" encoding="utf-8"?>
<!-- Generator: Adobe Illustrator 19.1.0, SVG Export Plug-In . SVG Version: 6.00 Build 0)  -->
<svg version="1.1" id="Layer_1" xmlns="http://www.w3.org/2000/svg" xmlns:xlink="http://www.w3.org/1999/xlink" x="0px" y="0px"
	 viewBox="-377 260.58 85.8 75.7" style="enable-background:new -377 260.58 85.8 75.7;" xml:space="preserve">
<style type="text/css">
	.st0{fill:#FFFFFF;}
</style>
<g>
	<polygon class="st0" points="-301.4,302.617 -301.3,302.48 -301.4,302.48 	"/>
	<path class="st0" d="M-304.3,329.48c0,2.1-1.7,3.8-3.8,3.8h-62.2c-2,0-3.7-1.7-3.7-3.8v-62.2c0-2,1.7-3.7,3.7-3.7h62.2
		c2.1,0,3.8,1.7,3.8,3.8v6.2l3-2v-6c0-2.8-2.3-5-5-5H-372c-2.7,0-5,2.3-5,5v65.6c0,2.8,2.3,5,5,5h65.6c2.8,0,5-2.3,5-5v-28.563
		l-2.9,3.963V329.48z"/>
	<path class="st0" d="M-291.5,272.08c-0.5-0.5-1.2-0.6-1.8-0.3l-45.189,30.858L-354.2,290.68c-0.5-0.4-1.3-0.4-1.8,0
		c-0.7,0.5-0.8,1.4-0.3,2.1l13.484,17.49c0.012,0.017,0.023,0.043,0.035,0.059c0.291,0.388,0.762,0.974,1.449,1.452
		c0.528,0.394,1.14,0.684,1.832,0.799c1.204,0.172,2.321-0.123,3.249-0.775c0.611-0.389,0.964-0.775,1.013-0.831l43.638-36.794
		C-291,273.68-290.9,272.68-291.5,272.08z"/>
</g>
</svg>
