<svg xmlns="http://www.w3.org/2000/svg" viewBox="0 0 129.1 128.9" enable-background="new 0 0 129.1 128.9"><style type="text/css">.st0{fill:#2E9CD4;}</style><path class="st0" d="M112.1 20.8l-4-4c-10.5-9.6-24.2-15.8-39.3-16.8h-8.4c-33.7 2.2-60.4 30.1-60.4 64.4 0 35.7 28.9 64.6 64.6 64.6s64.6-28.9 64.6-64.6c-.1-16.9-6.5-32.1-17.1-43.6zm-47.5 102.5c-32.5 0-59-26.4-59-59s26.5-59 59-59 59 26.4 59 59-26.5 59-59 59zM65.6 86.5c-11.8 0-21.3-9.6-21.3-21.3 0-11.5 9.2-20.8 20.6-21.2v10l22.9-13.2-22.9-13.3v10.4c-14.8.4-26.7 12.5-26.7 27.3 0 15.1 12.3 27.4 27.4 27.4 15.1 0 27.4-12.3 27.4-27.4h-6.1c0 11.8-9.5 21.3-21.3 21.3z"/></svg>