<svg xmlns="http://www.w3.org/2000/svg" viewBox="0 0 187.8 188.8" enable-background="new 0 0 187.8 188.8"><style type="text/css">.st0{fill:#2E9CD4;}</style><path class="st0" d="M165.8 52.7h5.7v-52.7h-54.2v5.6h48.5zM121.5 51.3h-69v66.8h69v-66.8zm-5.6 61.2h-4.3c-3.8-1.5-10.9-3.9-15.4-5.3-2.8-.9-2.8-3.2-2.8-5 0-2.1.8-4.1 1.5-5.6.6-1.3 1.3-3.5 1.5-5.3 0-.4.2-.8.5-1.1.5-.4 1.4-1.8 1.9-4.7.5-2.3.3-2.8.1-3.3-.1-.2-.2-.4-.2-.6-.4-1.4 0-6 .5-8.5.2-1.1-.1-4.2-2.1-6.9-1.9-2.4-4.7-3.7-8.3-3.9h-3c-3.6.2-6.4 1.5-8.2 3.9-2.1 2.6-2.3 5.8-2.1 6.9.5 2.5.9 7.1.5 8.5l-.2.6c-.2.5-.4 1 .1 3.3.6 2.9 1.5 4.4 1.9 4.7.3.3.5.7.5 1.1.2 1.7.9 4 1.5 5.3.9 1.9 1 4.2 1 5.7 0 1.8 0 4.1-2.7 5-4.5 1.3-11.3 3.7-15 5.2h-4.9v-55.5h57.7v55.5zM5.6 115.4h-5.6v56.1h52.5v-5.7h-46.9zM165.9 162.8c4.4-5.3 7.1-12.1 7.1-19.5 0-14.1-9.5-25.9-22.5-29.5v-92.8h-129.5v129.5h91.6c3.2 13.4 15.3 23.4 29.7 23.4 7.4 0 14.2-2.7 19.5-7.1l21.9 21.9 4-4-21.8-21.9zm-139.3-18v-118.2h118.2v86.2c-.8-.1-1.7-.1-2.5-.1-16.9 0-30.6 13.7-30.6 30.6v1.5h-85.1zm115.7 23.7c-11.4 0-21.1-7.6-24.2-18-.1-.4-.2-.9-.4-1.3v-.1l-.3-1.2v-.2c-.1-.4-.1-.8-.2-1.3v-.1c-.1-.5-.1-.9-.1-1.4l-.1-1.5c0-13.9 11.3-25.2 25.2-25.2.8 0 1.7 0 2.5.1 1 .1 1.9.2 2.9.5h.1l1.3.3c.5.1.9.3 1.3.4 9.9 3.4 17.1 12.8 17.1 23.8.1 13.9-11.2 25.2-25.1 25.2z"/></svg>