<svg xmlns="http://www.w3.org/2000/svg" viewBox="0 0 74.3 74.2" enable-background="new 0 0 74.3 74.2"><style type="text/css">.st0{fill:#FFFFFF;}</style><path class="st0" d="M33.5 39.7l.2.2c.8 1 2.1 1.7 3.5 1.7 2.5 0 4.5-2 4.5-4.5 0-1.3-.6-2.5-1.5-3.3-.1-.1-.2-.3-.4-.4l-18-13.7c-.5-.4-1.3-.4-1.8 0-.7.5-.8 1.4-.3 2.1l13.8 17.9zM37.1 0c-.5 0-1 .1-1.4.1v17.7h3v-14.8c18.1.8 32.7 15.7 32.7 34.1-.1 18.9-15.4 34.2-34.3 34.2s-34.1-15.3-34.1-34.2c0-9.4 3.8-18 10-24.1l-2.1-2.1c-6.7 6.7-10.9 16-10.9 26.2 0 20.5 16.6 37.1 37.1 37.1s37.1-16.6 37.1-37.1-16.6-37.1-37.1-37.1z"/></svg>