<svg xmlns="http://www.w3.org/2000/svg" viewBox="0 0 72.3 72.3" enable-background="new 0 0 72.3 72.3"><style type="text/css">.st0{fill:#FFFFFF;}</style><path class="st0" d="M72.3 0h-72.3v72.3h18.6l-2-3.8h-12.8v-64.7h64.7v64.7h-21.8c.9-1 1.7-2.1 2.3-3.4.7-1.4 1-3 1-4.6v-1.5c0-2.1-.3-3.8-1-5.3-.7-1.4-1.5-2.7-2.6-3.7s-2.3-1.8-3.7-2.5c-1.4-.7-2.8-1.3-4.2-1.9l-4.2-1.7c-1.4-.6-2.6-1.2-3.7-2s-1.9-1.7-2.6-2.7c-.7-1.1-1-2.4-1-3.9v-.9c0-1.1.2-2.1.6-3 .4-.9 1-1.8 1.7-2.4.7-.7 1.5-1.2 2.5-1.7s1.9-.6 3-.6h2.7c1.1 0 2.1.2 3 .6.9.4 1.8 1 2.4 1.7.7.7 1.2 1.5 1.7 2.4.4.9.6 1.9.6 3v2l4.4-.7v-1.2c0-1.6-.3-3.2-.9-4.6-.6-1.4-1.5-2.7-2.5-3.8-1.1-1.1-2.3-1.9-3.8-2.5-1.4-.6-3-.9-4.6-.9h-3.1c-1.6 0-3.2.3-4.6.9s-2.7 1.4-3.8 2.4c-1.1 1.1-1.9 2.3-2.5 3.8-.6 1.4-.9 3-.9 4.6v.9c0 2.1.3 3.8 1 5.2.7 1.4 1.5 2.6 2.6 3.6s2.3 1.8 3.7 2.4c1.4.7 2.8 1.2 4.2 1.8l4.2 1.6c1.4.5 2.6 1.2 3.7 2s1.9 1.7 2.6 2.8c.7 1.1 1 2.5 1 4.2v1.5c0 1.1-.2 2.1-.7 3-.4.9-1 1.8-1.8 2.5-.7.7-1.6 1.3-2.6 1.7-1 .4-2 .6-3.1.6h-3c-1.1 0-2.1-.2-3.1-.6-1-.4-1.8-1-2.6-1.7-.7-.7-1.3-1.5-1.8-2.5-.4-.9-.7-1.9-.7-3v-2.6l-4.4.7v1.9c0 1.6.3 3.2 1 4.6s1.6 2.7 2.7 3.8 2.4 1.9 3.9 2.6c1.5.6 3 .9 4.7.9h38v-72.3z"/></svg>