<?xml version="1.0" encoding="utf-8"?>
<!-- Generator: Adobe Illustrator 19.1.0, SVG Export Plug-In . SVG Version: 6.00 Build 0)  -->
<svg version="1.1" id="Layer_1" xmlns="http://www.w3.org/2000/svg" xmlns:xlink="http://www.w3.org/1999/xlink" x="0px" y="0px"
	 viewBox="0 0 63.5 48" style="enable-background:new 0 0 63.5 48;" xml:space="preserve">
<style type="text/css">
	.st0{fill:#47B649;}
</style>
<g>
	<path class="st0" d="M38.5,42.5c0,1-0.8,1.9-1.9,1.9H5.5c-1,0-1.9-0.8-1.9-1.9V11.3c0-1,0.8-1.9,1.9-1.9h31.1c1,0,1.9,0.8,1.9,1.9
		v3.1l3.6-2.5V8.6c0-1.6-1.3-2.8-2.8-2.8H2.8C1.3,5.8,0,7.1,0,8.6v36.5C0,46.7,1.3,48,2.8,48h36.5c1.6,0,2.8-1.3,2.8-2.8V27.6
		L38.5,31V42.5z"/>
	<path class="st0" d="M63.2,0.4c-0.4-0.5-1.1-0.6-1.6-0.3l-40,27.3L7.7,16.9c-0.5-0.4-1.1-0.4-1.6,0c-0.6,0.4-0.7,1.3-0.2,1.9
		l12.3,15.8c0,0,0.1,0.1,0.1,0.1c0.4,0.5,0.8,0.9,1.4,1.1c0,0,0.1,0,0.1,0c0.2,0.1,0.4,0.2,0.6,0.2c0.1,0,0.2,0,0.2,0.1
		c0,0,0.1,0,0.1,0c0.1,0,0.2,0,0.4,0c0.1,0,0.2,0,0.3,0c0,0,0.1,0,0.1,0c0.1,0,0.2,0,0.3,0c0.2,0,0.4-0.1,0.6-0.1c0,0,0.1,0,0.1,0
		c0.6-0.2,1.1-0.5,1.5-0.9c0,0,0.1,0,0.1-0.1L63.1,2.3C63.6,1.8,63.7,1,63.2,0.4z"/>
</g>
</svg>
